<svg width="1280" height="1773" viewBox="0 0 1280 1773" fill="none" xmlns="http://www.w3.org/2000/svg">
<path opacity="0.0526316" d="M357.736 259.258C305.678 279.881 209.238 358.801 239.945 509.5C278.328 697.873 463.003 802.311 533.412 977.159C585.379 1106.21 634.767 1436.19 471.262 1590.25" stroke="#F6F5EF" stroke-width="1.45842"/>
<path opacity="0.105263" d="M460.052 248.341C405.472 264.125 299.356 333.688 311.526 485.664C326.739 675.635 498.522 795.518 547.414 974.949C583.5 1107.38 592.303 1438.57 409.903 1576.57" stroke="#F6F5EF" stroke-width="1.45842"/>
<path opacity="0.157895" d="M561.819 244.805C505.61 255.575 391.567 315.007 385.068 466.572C376.944 656.029 533.103 790.026 559.762 972.044C579.438 1106.39 547.655 1435.1 349.373 1555.51" stroke="#F6F5EF" stroke-width="1.45842"/>
<path opacity="0.210526" d="M1289.45 281.891C696.914 35.0035 484.113 302.787 459.035 452.303C427.688 639.199 567.449 785.862 571.803 968.502C575.016 1103.3 502.936 1426 289.863 1527.5" stroke="#F6F5EF" stroke-width="1.45842"/>
<path opacity="0.263158" d="M1249.47 300.114C810.534 112.587 576.554 296.944 533.179 442.746C478.96 624.997 600.588 782.693 582.551 963.918C569.238 1097.68 457.689 1410.75 232.416 1492.22" stroke="#F6F5EF" stroke-width="1.45842"/>
<path opacity="0.315789" d="M1240.77 309.98C964.989 188.228 668.231 297.474 607.032 437.964C530.534 613.576 632.693 780.574 592.462 958.402C562.768 1089.65 412.967 1389.67 177.96 1450.23" stroke="#F6F5EF" stroke-width="1.45842"/>
<path opacity="0.368421" d="M1237.81 326.071C1023.59 237.421 758.368 304.236 680.014 437.877C582.072 604.928 663.642 779.398 601.654 951.879C555.902 1079.18 369.488 1362.87 127.322 1401.86" stroke="#F6F5EF" stroke-width="1.45842"/>
<path opacity="0.421053" d="M1262.88 359.698C1070.25 259.533 846.206 317.035 751.553 442.364C633.236 599.026 693.322 779.056 610.254 944.303C548.943 1066.27 327.95 1330.52 81.2724 1347.51" stroke="#F6F5EF" stroke-width="1.45842"/>
<path opacity="0.473684" d="M1280.35 389.596C1067.58 327.837 930.996 335.601 821.079 451.245C683.682 595.801 721.623 779.415 618.382 935.618C542.183 1050.91 289.031 1292.83 40.5482 1287.63" stroke="#F6F5EF" stroke-width="1.45842"/>
<path opacity="0.526316" d="M1198.57 406.786C1146.72 382.332 1012.04 359.598 888.059 464.292C733.087 595.159 748.463 780.343 626.18 925.789C535.926 1033.14 253.386 1250.08 5.81979 1222.76" stroke="#F6F5EF" stroke-width="1.45842"/>
<path opacity="0.578947" d="M1269.21 452.017C1220.42 423.18 1088.68 388.655 951.992 481.254C781.138 597.002 773.78 781.727 633.79 914.827C530.467 1013.06 221.628 1202.66 -22.3113 1153.52" stroke="#F6F5EF" stroke-width="1.45842"/>
<path opacity="0.631579" d="M1332.84 501.153C1287.64 468.25 1160.28 422.316 1012.39 501.806C827.524 601.168 797.509 783.407 641.345 902.701C526.085 990.749 194.33 1150.92 -43.3081 1080.51" stroke="#F6F5EF" stroke-width="1.45842"/>
<path opacity="0.684211" d="M1388.98 553.526C1347.87 516.92 1226.29 460.086 1068.81 525.597C871.962 607.485 819.617 785.234 648.989 889.416C523.053 966.31 172.016 1095.3 -56.7145 1004.4" stroke="#F6F5EF" stroke-width="1.45842"/>
<path opacity="0.736842" d="M1437.25 608.435C1400.68 568.531 1286.21 501.428 1120.87 552.243C914.191 615.762 840.087 787.064 656.864 874.991C521.632 939.888 155.159 1036.29 -62.1568 925.915" stroke="#F6F5EF" stroke-width="1.45842"/>
<path opacity="0.789474" d="M1477.33 665.141C1445.7 622.384 1339.6 545.762 1168.21 581.327C953.963 625.784 858.91 788.744 665.098 859.452C522.051 911.639 144.156 974.406 -59.3623 845.787" stroke="#F6F5EF" stroke-width="1.45842"/>
<path opacity="0.842105" d="M1509.02 722.876C1482.68 677.75 1386.12 592.481 1210.55 612.413C991.084 637.328 876.122 790.12 673.844 842.831C524.548 881.735 139.371 910.196 -48.1179 764.798" stroke="#F6F5EF" stroke-width="1.45842"/>
<path opacity="0.894737" d="M1532.2 781.083C1511.43 733.789 1425.46 640.233 1247.64 644.36C1025.36 649.518 891.745 791.373 683.218 825.748C529.309 851.12 141.069 844.971 -28.3353 683.399" stroke="#F6F5EF" stroke-width="1.45842"/>
<path opacity="0.947368" d="M1546.72 838.842C1531.77 790.22 1457.34 690.023 1279.24 678.205C1056.61 663.432 905.825 791.753 693.359 807.1C536.543 818.427 149.544 777.634 0.101839 602.722" stroke="#F6F5EF" stroke-width="1.45842"/>
<path d="M1552.87 895.337C1543.89 845.885 1481.8 740.076 1305.35 712.465C1084.78 677.951 918.462 791.465 704.357 787.666C546.332 784.861 164.765 709.909 36.9016 523.459" stroke="#F6F5EF" stroke-width="1.45842"/>
</svg>
